<svg id="Capa_1" enable-background="new 0 0 512 512" height="512" viewBox="0 0 512 512" width="512" xmlns="http://www.w3.org/2000/svg"><g><g><g><path d="m241.222 59.44h18.35v68.499h-18.35z" fill="#17799c"/></g></g><g><g><path d="m241.222 384.061h18.35v63.55h-18.35z" fill="#17799c"/></g></g><g fill="#0b495d"><path d="m256 64.162h15.222v63.778h-15.222z"/><path d="m256 384.061h15.222v63.55h-15.222z"/></g><circle cx="256" cy="256" fill="#7be2f6" r="124.892"/><g><g><path d="m110.317 70.042h30v112.368h-30z" fill="#17799c" transform="matrix(.707 -.707 .707 .707 -52.551 125.583)"/></g><g><path d="m330.489 111.16h112.181v30h-112.181z" fill="#0b495d" transform="matrix(.707 -.707 .707 .707 24.018 310.305)"/></g><g><path d="m69.156 370.701h112.213v30h-112.213z" fill="#17799c" transform="matrix(.707 -.707 .707 .707 -236.044 201.543)"/></g><g><g><path d="m384.061 240.936h69.19v30h-69.19z" fill="#0b495d"/></g></g><g><g><path d="m62.929 240.936h65.011v30h-65.011z" fill="#17799c"/></g></g><g><path d="m371.612 329.698h30v112.092h-30z" fill="#0b495d" transform="matrix(.707 -.707 .707 .707 -159.526 386.356)"/></g></g><g><g><path d="m256 511.388c-20.762 0-37.653-16.914-37.653-37.703s16.891-37.703 37.653-37.703c20.762-.001 20.762 75.406 0 75.406z" fill="#fed943"/></g><g><path d="m256 435.981v75.407c20.762 0 37.653-16.914 37.653-37.703s-16.891-37.704-37.653-37.704z" fill="#fcbe2c"/></g></g><g><g><path d="m256 75.407c-20.762 0-37.653-16.914-37.653-37.703s16.891-37.704 37.653-37.704 20.762 75.407 0 75.407z" fill="#fed943"/></g><g><path d="m256 0v75.407c20.762 0 37.653-16.914 37.653-37.703s-16.891-37.704-37.653-37.704z" fill="#fcbe2c"/></g></g><g><path d="m256 131.108v249.784c68.976 0 124.892-55.916 124.892-124.892s-55.916-124.892-124.892-124.892z" fill="#55d0f9"/></g><path d="m259.427 375.185c-1.108 1.797-2.25-16.894-3.425-15.176-9.563-13.981-16.932-30.628-21.797-49.006h25.222v-30h-30.734c-.861-7.91-1.311-16.013-1.311-24.258 0-8.762.5-17.367 1.471-25.747h30.575v-30h-24.815c4.866-17.787 12.087-33.916 21.39-47.517 1.175 1.718 2.317-20.748 3.425-18.951v-21.546c-1.139-.027-2.281-.043-3.427-.043-78.884 0-143.061 64.177-143.061 143.061s64.176 143.059 143.06 143.059c1.146 0 2.288-.017 3.427-.043zm-113.696-94.183c-1.823-8.046-2.791-16.413-2.791-25.002s.968-16.957 2.791-25.002h52.96c-.864 8.432-1.309 17.031-1.309 25.747 0 8.204.398 16.303 1.164 24.258h-52.815zm11.521 30h46.101c4.413 19.356 11.205 37.356 20.099 53.275-28.333-8.532-52.012-27.903-66.2-53.275zm46.458-110.004h-46.458c14.356-25.672 38.428-45.202 67.207-53.576-9.158 15.947-16.161 34.063-20.749 53.576z" fill="#55d0f9"/><path d="m256 112.939s.001 40.542.002 40.541c9.303 13.601 16.525 29.73 21.391 47.517h-21.393v30h27.152c.971 8.38 1.471 16.985 1.471 25.747 0 8.245-.45 16.347-1.311 24.258h-27.312v30h21.8c-4.866 18.378-12.235 35.025-21.798 49.006-.001-.001-.002 39.052-.002 39.052 78.884 0 143.061-64.177 143.061-143.061s-64.177-143.06-143.061-143.06zm98.748 88.059h-46.453c-4.589-19.512-11.591-37.628-20.749-53.574 28.777 8.374 52.847 27.903 67.202 53.574zm-66.195 163.278c8.893-15.919 15.685-33.919 20.098-53.274h46.097c-14.187 25.371-37.864 44.741-66.195 53.274zm24.906-83.274c.766-7.955 1.164-16.053 1.164-24.258 0-8.717-.445-17.315-1.309-25.747h52.955c1.823 8.046 2.791 16.413 2.791 25.002s-.968 16.957-2.791 25.002h-52.81z" fill="#00b9eb"/><g><ellipse cx="474.347" cy="256" fill="#fcbe2c" rx="37.653" ry="37.703"/><ellipse cx="37.653" cy="256" fill="#fed943" rx="37.653" ry="37.703"/><ellipse cx="52.533" cy="52.603" fill="#badb47" rx="52.533" ry="52.603"/><ellipse cx="459.467" cy="52.603" fill="#e43b54" rx="52.533" ry="52.603"/><ellipse cx="52.533" cy="459.397" fill="#fd657d" rx="52.533" ry="52.603"/><ellipse cx="459.467" cy="459.397" fill="#92ca32" rx="52.533" ry="52.603"/></g></g></svg>