<svg height="512" viewBox="0 0 64 64" width="512" xmlns="http://www.w3.org/2000/svg"><g id="API"><circle cx="58" cy="58" fill="#ffde55" r="3"/><circle cx="56" cy="48" fill="#ffde55" r="3"/><path d="m61 23a7.989 7.989 0 0 1 -8 8h-42a8 8 0 0 1 0-16h.14a14 14 0 0 1 25.43-5.87 8 8 0 0 1 13.43 5.87h3a8 8 0 0 1 8 8z" fill="#57a4ff"/><path d="m61 23a7.989 7.989 0 0 1 -8 8h-34.08c6.47-1.43 14.28-4.69 20.08-12a33.049 33.049 0 0 0 5.86-11.47 7.992 7.992 0 0 1 5.14 7.47h3a8 8 0 0 1 8 8z" fill="#006df0"/><g fill="#ffde55"><circle cx="32" cy="58" r="3"/><circle cx="8" cy="46" r="3"/><circle cx="6" cy="58" r="3"/></g><path d="m58 54a4 4 0 0 0 -3.86 3h-3.14a1 1 0 0 1 -1-1v-7h2.14a4 4 0 1 0 0-2h-2.14v-15h3a9 9 0 0 0 0-18h-2.06a8.977 8.977 0 0 0 -14.18-6.3 14.982 14.982 0 0 0 -26.45 6.34 8.993 8.993 0 0 0 .69 17.96h3v13h-2.14a4 4 0 1 0 0 2h2.14v9a1 1 0 0 1 -1 1h-3.14a4 4 0 1 0 0 2h3.14a3.009 3.009 0 0 0 3-3v-9h8a3.009 3.009 0 0 0 3-3v-12h4v22.14a4 4 0 1 0 2 0v-22.14h4v14a3.009 3.009 0 0 0 3 3h8v7a3.009 3.009 0 0 0 3 3h3.14a3.994 3.994 0 1 0 3.86-5zm-2-8a2 2 0 1 1 -2 2 2.006 2.006 0 0 1 2-2zm-48 2a2 2 0 1 1 2-2 2.006 2.006 0 0 1 -2 2zm-2 12a2 2 0 1 1 2-2 2.006 2.006 0 0 1 -2 2zm19-16a1 1 0 0 1 -1 1h-8v-13h9zm9 14a2 2 0 1 1 -2-2 2.006 2.006 0 0 1 2 2zm14-11h-8a1 1 0 0 1 -1-1v-14h9zm-37-17a7 7 0 0 1 0-14h.12a7.018 7.018 0 0 1 6 3.61l1.76-.97a9.086 9.086 0 0 0 -6.55-4.54 13 13 0 0 1 25.64 1.97l1.99-.14a14.907 14.907 0 0 0 -2.07-6.58 7 7 0 0 1 10.24 9.04l1.74.97a9.005 9.005 0 0 0 1.07-3.36h2.06a7 7 0 1 1 0 14zm47 30a2 2 0 1 1 2-2 2.006 2.006 0 0 1 -2 2z"/><path d="m8 23a3 3 0 0 1 3-3v-2a5 5 0 0 0 0 10h6v-2h-6a3 3 0 0 1 -3-3z"/><path d="m25.99 18.89a.989.989 0 0 0 -.99-.89h-4a.989.989 0 0 0 -.99.89l-1 9 1.98.22.35-3.11h3.32l.35 3.11 1.98-.22zm-4.43 4.11.34-3h2.2l.34 3z"/><path d="m36 18h-6a1 1 0 0 0 -1 1v9h2v-4h5a1 1 0 0 0 1-1v-4a1 1 0 0 0 -1-1zm-1 4h-4v-2h4z"/><path d="m43 20v6h2v2h-6v-2h2v-6h-2v-2h6v2z"/></g></svg>