<?xml version="1.0" encoding="iso-8859-1"?>
<!-- Generator: Adobe Illustrator 19.0.0, SVG Export Plug-In . SVG Version: 6.00 Build 0)  -->
<svg version="1.1" id="Capa_1" xmlns="http://www.w3.org/2000/svg" xmlns:xlink="http://www.w3.org/1999/xlink" x="0px" y="0px"
	 viewBox="0 0 409.599 409.599" style="enable-background:new 0 0 409.599 409.599;" xml:space="preserve">
<path style="fill:#D5D6DB;" d="M0,329.237v11.042c0,2.649,2.147,4.796,4.796,4.796h400.006c2.649,0,4.796-2.147,4.796-4.796v-11.042
	H0z"/>
<polygon style="fill:#EBF0F3;" points="362.544,268.398 47.055,268.398 0,329.237 409.599,329.237 "/>
<path style="fill:#3A556A;" d="M351.537,64.524H58.062c-6.044,0-10.943,4.899-10.943,10.942v192.932H362.48V75.466
	C362.48,69.423,357.581,64.524,351.537,64.524z"/>
<rect x="69.462" y="86.865" style="fill:#2D93BA;" width="270.674" height="159.181"/>
<polygon style="fill:#27A2DB;" points="340.137,86.866 182.452,86.866 275.418,246.058 340.137,246.058 "/>
<g>
	<polygon style="fill:#64798A;" points="77.772,275.068 53.727,275.068 56.357,271.587 79.982,271.587 	"/>
	<polygon style="fill:#64798A;" points="121.996,275.068 97.952,275.068 99.81,271.587 123.435,271.587 	"/>
	<polygon style="fill:#64798A;" points="152.481,275.068 128.437,275.068 129.763,271.587 153.387,271.587 	"/>
	<polygon style="fill:#64798A;" points="182.966,275.068 158.921,275.068 159.716,271.587 183.34,271.587 	"/>
	<polygon style="fill:#64798A;" points="213.451,275.068 189.406,275.068 189.668,271.587 213.293,271.587 	"/>
	<polygon style="fill:#64798A;" points="263.686,275.068 239.642,275.068 239.027,271.587 262.652,271.587 	"/>
	<polygon style="fill:#64798A;" points="294.171,275.068 270.127,275.068 268.98,271.587 292.605,271.587 	"/>
	<polygon style="fill:#64798A;" points="324.656,275.068 300.611,275.068 298.933,271.587 322.558,271.587 	"/>
	<polygon style="fill:#64798A;" points="355.141,275.068 331.096,275.068 328.886,271.587 352.511,271.587 	"/>
	<polygon style="fill:#64798A;" points="72.552,283.29 47.516,283.29 51.555,277.944 75.946,277.944 	"/>
	<polygon style="fill:#64798A;" points="108.652,283.29 83.616,283.29 86.726,277.944 111.117,277.944 	"/>
	<polygon style="fill:#64798A;" points="144.752,283.29 119.716,283.29 121.897,277.944 146.288,277.944 	"/>
	<polygon style="fill:#64798A;" points="180.852,283.29 155.816,283.29 157.068,277.944 181.459,277.944 	"/>
	<polygon style="fill:#64798A;" points="216.952,283.29 191.916,283.29 192.238,277.944 216.629,277.944 	"/>
	<polygon style="fill:#64798A;" points="253.052,283.29 228.016,283.29 227.409,277.944 251.8,277.944 	"/>
	<polygon style="fill:#64798A;" points="289.151,283.29 264.116,283.29 262.58,277.944 286.971,277.944 	"/>
	<polygon style="fill:#64798A;" points="325.251,283.29 300.216,283.29 297.751,277.944 322.142,277.944 	"/>
	<polygon style="fill:#64798A;" points="361.351,283.29 336.316,283.29 332.922,277.944 357.313,277.944 	"/>
	<polygon style="fill:#64798A;" points="67.562,291.149 41.58,291.149 45.925,285.396 71.214,285.396 	"/>
	<polygon style="fill:#64798A;" points="105.028,291.149 79.045,291.149 82.391,285.396 107.68,285.396 	"/>
	<polygon style="fill:#64798A;" points="142.494,291.149 116.511,291.149 118.857,285.396 144.146,285.396 	"/>
	<polygon style="fill:#64798A;" points="179.959,291.149 153.977,291.149 155.323,285.396 180.612,285.396 	"/>
	<polygon style="fill:#64798A;" points="217.425,291.149 191.443,291.149 191.789,285.396 217.078,285.396 	"/>
	<polygon style="fill:#64798A;" points="254.891,291.149 228.908,291.149 228.255,285.396 253.545,285.396 	"/>
	<polygon style="fill:#64798A;" points="292.357,291.149 266.374,291.149 264.721,285.396 290.011,285.396 	"/>
	<polygon style="fill:#64798A;" points="329.823,291.149 303.84,291.149 301.187,285.396 326.477,285.396 	"/>
	<polygon style="fill:#64798A;" points="367.288,291.149 341.306,291.149 337.653,285.396 362.943,285.396 	"/>
	<polygon style="fill:#64798A;" points="82.241,299.626 35.176,299.626 39.865,293.419 85.626,293.419 	"/>
	<polygon style="fill:#64798A;" points="118.82,299.626 91.816,299.626 94.936,293.419 121.192,293.419 	"/>
	<polygon style="fill:#64798A;" points="157.759,299.626 130.755,299.626 132.796,293.419 159.052,293.419 	"/>
	<polygon style="fill:#64798A;" points="196.698,299.626 169.694,299.626 170.656,293.419 196.912,293.419 	"/>
	<polygon style="fill:#64798A;" points="235.637,299.626 208.633,299.626 208.517,293.419 234.773,293.419 	"/>
	<polygon style="fill:#64798A;" points="295.814,299.626 243.976,299.626 242.88,293.419 293.282,293.419 	"/>
	<polygon style="fill:#64798A;" points="334.753,299.626 307.749,299.626 304.887,293.419 331.143,293.419 	"/>
	<polygon style="fill:#64798A;" points="373.692,299.626 346.688,299.626 342.747,293.419 369.003,293.419 	"/>
	<polygon style="fill:#64798A;" points="56.357,308.798 28.248,308.798 33.323,302.079 60.623,302.079 	"/>
	<polygon style="fill:#64798A;" points="218.489,308.798 68.78,308.798 72.688,302.079 218.084,302.079 	"/>
	<polygon style="fill:#64798A;" points="259.022,308.798 230.912,308.798 230.149,302.079 257.449,302.079 	"/>
	<polygon style="fill:#64798A;" points="340.087,308.798 311.978,308.798 308.88,302.079 336.18,302.079 	"/>
	<polygon style="fill:#64798A;" points="380.62,308.798 352.511,308.798 348.245,302.079 375.545,302.079 	"/>
	<polygon style="fill:#64798A;" points="298.009,305.008 296.814,302.079 269.514,302.079 270.356,305.008 	"/>
	<polygon style="fill:#64798A;" points="270.575,305.771 271.444,308.798 299.554,308.798 298.32,305.771 	"/>
</g>
<polygon style="fill:#3A556A;" points="246.296,324.353 163.303,324.353 168.58,311.267 241.019,311.267 "/>
<g>
	<polygon style="fill:#FFFFFF;" points="217.594,169.148 181.624,149.322 191.506,189.187 196.483,175.186 206.641,188.41 
		212.941,183.571 202.783,170.347 	"/>
	<rect x="180.531" y="132.3" style="fill:#FFFFFF;" width="2.222" height="6.395"/>
	<rect x="180.531" y="158.571" style="fill:#FFFFFF;" width="2.222" height="6.395"/>
	<rect x="191.544" y="147.517" style="fill:#FFFFFF;" width="6.395" height="2.222"/>
	<rect x="165.268" y="147.522" style="fill:#FFFFFF;" width="6.395" height="2.222"/>
	
		<rect x="189.822" y="136.146" transform="matrix(-0.7071 -0.7071 0.7071 -0.7071 227.412 372.8832)" style="fill:#FFFFFF;" width="2.222" height="6.395"/>
	
		<rect x="171.211" y="154.717" transform="matrix(-0.7071 -0.7071 0.7071 -0.7071 182.5093 391.4274)" style="fill:#FFFFFF;" width="2.222" height="6.395"/>
	
		<rect x="189.82" y="154.731" transform="matrix(0.7071 -0.7071 0.7071 0.7071 -55.75 181.2648)" style="fill:#FFFFFF;" width="2.222" height="6.395"/>
	
		<rect x="171.249" y="136.137" transform="matrix(0.7071 -0.7071 0.7071 0.7071 -48.041 162.6872)" style="fill:#FFFFFF;" width="2.222" height="6.395"/>
</g>
<g>
</g>
<g>
</g>
<g>
</g>
<g>
</g>
<g>
</g>
<g>
</g>
<g>
</g>
<g>
</g>
<g>
</g>
<g>
</g>
<g>
</g>
<g>
</g>
<g>
</g>
<g>
</g>
<g>
</g>
</svg>
