<?xml version="1.0" encoding="UTF-8" standalone="no"?>
<svg
   xmlns:osb="http://www.openswatchbook.org/uri/2009/osb"
   xmlns:dc="http://purl.org/dc/elements/1.1/"
   xmlns:cc="http://creativecommons.org/ns#"
   xmlns:rdf="http://www.w3.org/1999/02/22-rdf-syntax-ns#"
   xmlns:svg="http://www.w3.org/2000/svg"
   xmlns="http://www.w3.org/2000/svg"
   xmlns:sodipodi="http://sodipodi.sourceforge.net/DTD/sodipodi-0.dtd"
   xmlns:inkscape="http://www.inkscape.org/namespaces/inkscape"
   version="1.1"
   id="svg217"
   width="475.82608"
   height="475.82608"
   viewBox="0 0 475.82608 475.82608"
   sodipodi:docname="logonew.svg"
   inkscape:version="1.0.2-2 (e86c870879, 2021-01-15)"
   inkscape:export-filename="C:\xampp\htdocs\valainet\images\logonew.png"
   inkscape:export-xdpi="96"
   inkscape:export-ydpi="96">
  <metadata
     id="metadata223">
    <rdf:RDF>
      <cc:Work
         rdf:about="">
        <dc:format>image/svg+xml</dc:format>
        <dc:type
           rdf:resource="http://purl.org/dc/dcmitype/StillImage" />
        <dc:title></dc:title>
      </cc:Work>
    </rdf:RDF>
  </metadata>
  <defs
     id="defs221">
    <linearGradient
       id="linearGradient3079"
       osb:paint="solid">
      <stop
         style="stop-color:#000000;stop-opacity:1;"
         offset="0"
         id="stop3077" />
    </linearGradient>
  </defs>
  <sodipodi:namedview
     pagecolor="#ffffff"
     bordercolor="#666666"
     borderopacity="1"
     objecttolerance="10"
     gridtolerance="10"
     guidetolerance="10"
     inkscape:pageopacity="0"
     inkscape:pageshadow="2"
     inkscape:window-width="1920"
     inkscape:window-height="1017"
     id="namedview219"
     showgrid="false"
     inkscape:object-paths="true"
     inkscape:zoom="1.2631522"
     inkscape:cx="232.97714"
     inkscape:cy="230.83124"
     inkscape:window-x="-8"
     inkscape:window-y="-8"
     inkscape:window-maximized="1"
     inkscape:current-layer="layer5" />
  <g
     inkscape:groupmode="layer"
     id="layer5"
     inkscape:label="Image 1">
    <path
       style="fill:none;stroke:#000000;stroke-width:2;stroke-linecap:butt;stroke-linejoin:miter;stroke-opacity:1;stroke-miterlimit:4;stroke-dasharray:none"
       d="M 139.33396,467.08544 337.25152,4.7500214"
       id="path254" />
  </g>
  <g
     inkscape:groupmode="layer"
     id="layer6"
     inkscape:label="Image 2">
    <path
       style="fill:none;stroke:#000000;stroke-width:2;stroke-linecap:butt;stroke-linejoin:miter;stroke-opacity:1;stroke-miterlimit:4;stroke-dasharray:none"
       d="M 334.08484,468.66878 145.66732,3.1666809"
       id="path257" />
  </g>
  <g
     inkscape:groupmode="layer"
     id="layer7"
     inkscape:label="Image 3">
    <path
       style="fill:none;stroke:#000000;stroke-width:2.012;stroke-linecap:butt;stroke-linejoin:miter;stroke-opacity:1;stroke-miterlimit:4;stroke-dasharray:none"
       d="M 1.202254,332.5001 477.89679,142.50204"
       id="path260" />
  </g>
  <g
     inkscape:groupmode="layer"
     id="layer8"
     inkscape:label="Image 4">
    <path
       style="fill:none;stroke:#000000;stroke-width:2.012;stroke-linecap:butt;stroke-linejoin:miter;stroke-opacity:1;stroke-miterlimit:4;stroke-dasharray:none"
       d="M 1.8516137,139.33574 477.43289,337.24974"
       id="path263" />
  </g>
  <g
     inkscape:groupmode="layer"
     id="layer9"
     inkscape:label="Image 5"
     style="display:inline">
    <path
       style="fill:#000000;stroke:#000000;stroke-width:4;stroke-linecap:butt;stroke-linejoin:miter;stroke-miterlimit:4;stroke-dasharray:none;stroke-opacity:1"
       d="m 204.46339,148.42757 70.93362,0.81459 45.5496,55.81614 -0.84179,66.71908 -46.11404,48.42373 -71.57523,-0.47427 -47.79166,-48.37662 -1.16622,-68.92335 z"
       id="path266"
       sodipodi:nodetypes="ccccccccc" />
  </g>
  <g
     inkscape:groupmode="layer"
     id="layer10"
     inkscape:label="Image 6">
    <path
       style="fill:none;stroke:#000000;stroke-width:4;stroke-linecap:butt;stroke-linejoin:miter;stroke-opacity:1;stroke-miterlimit:4;stroke-dasharray:none"
       d="m 294.50133,102.91713 c 23.26935,34.69242 50.14598,58.56299 77.58368,80.75036 -13.684,35.88905 -11.81791,75.06744 -0.16851,110.95649 -32.3543,15.32995 -63.4367,33.77566 -78.99851,74.29435 -39.48548,-15.57687 -77.15209,-16.60291 -112.41718,1.58334 -19.66888,-27.93206 -33.8351,-55.23176 -81.601245,-75.13603 13.846935,-36.70061 16.026735,-76.12739 0.425691,-117.03486 35.231274,-12.86172 68.091514,-37.8536 86.500914,-75.94812 35.88905,10.47839 72.78611,11.12753 108.67516,0.53447 z"
       id="path269"
       sodipodi:nodetypes="ccccccccc" />
  </g>
  <g
     inkscape:groupmode="layer"
     id="layer11"
     inkscape:label="Image 7">
    <path
       style="fill:none;stroke:#000000;stroke-width:4;stroke-linecap:butt;stroke-linejoin:miter;stroke-miterlimit:4;stroke-dasharray:none;stroke-opacity:1"
       d="m 319.74303,45.649858 c 25.09781,54.281038 66.66348,90.263622 108.47171,115.301422 -12.58302,51.25683 -17.20143,104.44797 -0.2678,155.7048 -48.41367,27.64724 -87.32727,66.58454 -110.41587,111.11515 C 261.40198,407.13673 204.49576,413.17138 156.7809,426.32938 133.80331,385.87112 105.4208,341.3598 49.272023,313.34074 62.867097,263.32821 70.788989,212.26982 46.931743,158.09592 94.393414,138.3052 135.63853,97.060743 161.99046,43.494434 c 52.95113,23.971339 109.02261,20.395862 157.75257,2.155424 z"
       id="path272"
       sodipodi:nodetypes="ccccccccc" />
  </g>
  <g
     inkscape:groupmode="layer"
     id="layer12"
     inkscape:label="Image 8"
     style="display:inline">
    <g
       aria-label="VA"
       id="text279"
       style="font-style:normal;font-weight:normal;font-size:97.4867px;line-height:1.25;font-family:sans-serif;fill:#ffffff;fill-opacity:1;stroke:none;stroke-width:1.01549;stroke-opacity:1"
       transform="translate(0,-6)">
      <path
         d="m 218.38372,266.47053 c -0.12694,0.34907 -0.30148,0.63468 -0.52361,0.85682 -0.22214,0.22213 -0.53948,0.39667 -0.95202,0.52361 -0.38081,0.12693 -0.88855,0.20627 -1.52323,0.238 -0.60295,0.0635 -1.36456,0.0952 -2.28485,0.0952 -0.69815,0 -1.31696,-0.0159 -1.85643,-0.0476 -0.50775,0 -0.95202,-0.0317 -1.33283,-0.0952 -0.38081,-0.0635 -0.71401,-0.12693 -0.99962,-0.1904 -0.25387,-0.0952 -0.47601,-0.20627 -0.66641,-0.33321 -0.19041,-0.12693 -0.34908,-0.26974 -0.47601,-0.42841 -0.0952,-0.1904 -0.1904,-0.41254 -0.28561,-0.66641 -3.59956,-25.29644 -10.20265,-44.58584 -20.13519,-57.21632 -0.25387,-0.69815 -0.39668,-1.25349 -0.42841,-1.66603 0,-0.44427 0.1428,-0.77748 0.42841,-0.99962 0.28561,-0.22213 0.74575,-0.36494 1.38043,-0.42841 0.63468,-0.0635 1.4915,-0.0952 2.57045,-0.0952 0.88855,0 1.58669,0.0317 2.09444,0.0952 0.53947,0.0317 0.95201,0.11107 1.23762,0.23801 0.28561,0.12693 0.49188,0.30147 0.61882,0.52361 0.15867,0.1904 0.30147,0.44427 0.4284,0.76161 4.92012,3.37868 11.00834,23.55673 17.65995,51.83742 h 0.0476 l 17.18393,-51.74221 c 0.0952,-0.34907 0.20628,-0.63468 0.33321,-0.85682 0.12693,-0.22214 0.34907,-0.39668 0.66641,-0.52361 0.31734,-0.12693 0.76162,-0.20627 1.33283,-0.23801 0.57121,-0.0635 1.33283,-0.0952 2.28484,-0.0952 0.98375,0 1.76124,0.0476 2.33245,0.14281 0.57121,0.0635 0.95202,0.20627 1.14242,0.4284 0.22214,0.22214 0.30148,0.55535 0.23801,0.99962 -0.0317,0.41254 -0.17454,0.96789 -0.42841,1.66604 -9.50743,17.31487 -18.83917,34.73956 -20.08759,57.21631 z"
         style="font-style:normal;font-variant:normal;font-weight:normal;font-stretch:normal;font-size:97.4867px;font-family:Calibri;-inkscape-font-specification:Calibri;fill:#ffffff;fill-opacity:1;stroke:none;stroke-width:1.01549;stroke-opacity:1"
         id="path3114"
         sodipodi:nodetypes="csccscscsccccssscscccccsscsccccc" />
      <path
         d="m 290.35632,264.9949 c 0.25387,0.69815 0.38081,1.26936 0.38081,1.71364 0.0317,0.41254 -0.0793,0.72988 -0.33321,0.95201 -0.25387,0.22214 -0.68227,0.36494 -1.28522,0.42841 -0.57121,0.0635 -1.3487,0.0952 -2.33245,0.0952 -0.98375,0 -1.7771,-0.0317 -2.38004,-0.0952 -0.57121,-0.0317 -1.01549,-0.0952 -1.33283,-0.1904 -0.28561,-0.12693 -0.50774,-0.2856 -0.66641,-0.47601 -0.12694,-0.19041 -0.25388,-0.42841 -0.38081,-0.71401 l -5.2837,-14.9943 c -7.18261,-1.89536 -14.75052,-3.25129 -25.6093,0 l -5.0457,14.80389 c -0.0952,0.28561 -0.22214,0.53948 -0.38081,0.76162 -0.15867,0.1904 -0.39667,0.36494 -0.71401,0.52361 -0.28561,0.12693 -0.71402,0.22213 -1.28523,0.2856 -0.53947,0.0635 -1.25349,0.0952 -2.14204,0.0952 -0.92029,0 -1.6819,-0.0476 -2.28484,-0.14281 -0.57121,-0.0635 -0.98376,-0.20627 -1.23763,-0.42841 -0.22213,-0.22213 -0.3332,-0.53947 -0.3332,-0.95201 0.0317,-0.44428 0.17453,-1.01549 0.4284,-1.71364 9.69889,-19.0721 19.67431,-38.14421 20.65881,-57.21631 0.12693,-0.34907 0.2856,-0.63468 0.47601,-0.85682 0.22213,-0.22214 0.5236,-0.39668 0.90441,-0.52361 0.41255,-0.12693 0.92029,-0.20627 1.52323,-0.23801 0.63468,-0.0635 1.42803,-0.0952 2.38005,-0.0952 1.01549,0 1.85644,0.0317 2.52285,0.0952 0.66641,0.0317 1.20589,0.11107 1.61843,0.23801 0.41254,0.12693 0.72988,0.31734 0.95202,0.57121 0.22214,0.22214 0.39668,0.50775 0.52361,0.85682 1.05373,19.60234 11.82341,38.32141 20.6588,57.21632 z m -26.51371,-50.50458 h -0.0476 l -10.615,30.7026 c 7.14014,3.59411 14.28028,3.11634 21.42042,0 z"
         style="font-style:normal;font-variant:normal;font-weight:normal;font-stretch:normal;font-size:97.4867px;font-family:Calibri;-inkscape-font-specification:Calibri;fill:#ffffff;fill-opacity:1;stroke:none;stroke-width:1.01549;stroke-opacity:1"
         id="path3116"
         sodipodi:nodetypes="ccscsccccccccccsccccccccscscccccccc" />
    </g>
  </g>
  <g
     inkscape:groupmode="layer"
     id="layer13"
     inkscape:label="Image 9" />
</svg>
