<svg id="Capa_1" enable-background="new 0 0 512 512" height="512" viewBox="0 0 512 512" width="512" xmlns="http://www.w3.org/2000/svg"><g><path d="m256 400.784 185.629 31.499c43.608-45.906 70.371-107.968 70.371-176.283 0-141.385-114.615-256-256-256s-256 114.615-256 256c0 68.315 26.763 130.377 70.371 176.283z" fill="#00ed89"/><path d="m225.553 119.986-72.447 80.13 39.824 39.824-10.598 10.598 165.896 165.896 93.401 15.849c42.391-44.624 68.856-104.516 70.301-170.576l-184.477-184.479z" fill="#00dc80"/><path d="m256.003 494.981 49.167-115.545-49.167-89.868-57.932 10.296-97.151 37.819c-18.417 7.17-30.546 24.907-30.546 44.671v49.929c40.391 42.518 95.238 71.159 156.663 78.078z" fill="#e2e2eb"/><path d="m411.085 337.683-97.151-37.819-57.932-10.296v205.412l28.966 15.38c61.425-6.919 116.273-35.56 156.663-78.078v-49.929c0-19.763-12.129-37.5-30.546-44.67z" fill="#cfcfdd"/><g><path d="m256 103.668-100.983 42.155v35.572c0 55.771 45.212 100.983 100.983 100.983l49.387-80.981v-52.747z" fill="#606074"/><path d="m256 103.668v178.71c50.494 0 100.983-45.212 100.983-100.983v-35.572z" fill="#454553"/></g><g><path d="m198.071 299.864 57.932 27.7 37.644-70.462-37.644-42.763h-57.932z" fill="#c38858"/><path d="m256.003 327.564 57.931-27.7v-85.525h-57.931z" fill="#b17a49"/></g><g><path d="m256 64.573c-48.367 0-87.577 39.209-87.577 87.577v20.594c-1.218-.29-2.482-.461-3.789-.461-9.004 0-16.304 7.299-16.304 16.304s7.299 16.304 16.304 16.304c1.393 0 2.737-.193 4.027-.522 3.314 45.344 41.149 81.102 87.338 81.102l42.831-87.577v-45.744z" fill="#d5985c"/><path d="m347.366 172.284c-1.307 0-2.571.17-3.789.461v-20.595c0-48.367-39.209-87.577-87.577-87.577v220.898c46.189 0 84.024-35.758 87.338-81.102 1.29.329 2.635.522 4.027.522 9.004 0 16.304-7.299 16.304-16.304s-7.299-16.303-16.303-16.303z" fill="#c38858"/></g><g><circle cx="216.778" cy="184.95" fill="#606074" r="8.95"/><circle cx="295.222" cy="184.95" fill="#454553" r="8.95"/></g><path d="m256 239.537c-5.785 0-11.182-3.115-14.084-8.13l-12.982 7.513c5.574 9.633 15.946 15.618 27.066 15.618l10.001-7.968z" fill="#ce5668"/><path d="m283.067 238.919-12.983-7.513c-2.902 5.015-8.298 8.131-14.083 8.131v15c11.12 0 21.492-5.984 27.066-15.618z" fill="#c73c50"/><path d="" fill="#905041"/><g><path d="m240.409 153.754 15.593 21.101c29.925 0 56.765-13.176 75.059-34.034h-75.059z" fill="#005fe0"/><path d="m180.943 140.822c18.294 20.858 45.134 34.034 75.059 34.034v-34.034z" fill="#2681ff"/></g><g><path d="m288.362 107.075-32.359-59.459c-54.852 0-99.491 43.716-100.983 98.207h103.839z" fill="#6aa8ff"/><path d="m356.985 145.823c-1.492-54.491-46.131-98.207-100.983-98.207v98.207z" fill="#2681ff"/></g><path d="m256.003 476.603 2.317-19.531-2.317-19.531-112.735-17.382v-33.223h23.484v-15h-38.484v61.087l120.235 18.538v25.042z" fill="#606074"/><path d="m263.503 438.697-7.5-1.156v39.062h7.5z" fill="#454553"/><g><path d="m256.003 406.392h-98.334v-53.911h23.269l75.065 10.001 39.566 16.954z" fill="#fd5"/><path d="m354.336 406.392h-98.333v-43.91l75.064-10.001h23.269z" fill="#fc0"/></g><path d="m256.003 462.981h-28.966v47.38c9.509 1.071 19.17 1.639 28.966 1.639.711 0 1.417-.022 2.127-.028l9.528-22.036z" fill="#ce5668"/><path d="m284.968 462.981h-28.966v49.019c9.795 0 19.457-.568 28.966-1.639z" fill="#c73c50"/><g><path d="m256.003 384.553h-75.065v-32.072h75.065l30.203 16.036z" fill="#ff9e22"/><path d="m256.003 352.481v32.072h31.834v18.949c0 5.266 4.269 9.535 9.535 9.535 2.062 0 3.965-.661 5.525-1.773v5.316c0 7.779 6.306 14.085 14.085 14.085s14.085-6.306 14.085-14.085v-64.098h-75.064z" fill="#dc7d00"/></g></g></svg>