<?xml version="1.0" encoding="UTF-8" standalone="no"?>
<svg
   xmlns:dc="http://purl.org/dc/elements/1.1/"
   xmlns:cc="http://creativecommons.org/ns#"
   xmlns:rdf="http://www.w3.org/1999/02/22-rdf-syntax-ns#"
   xmlns:svg="http://www.w3.org/2000/svg"
   xmlns="http://www.w3.org/2000/svg"
   xmlns:sodipodi="http://sodipodi.sourceforge.net/DTD/sodipodi-0.dtd"
   xmlns:inkscape="http://www.inkscape.org/namespaces/inkscape"
   height="512"
   viewBox="0 0 64 64"
   width="512"
   version="1.1"
   id="svg10"
   sodipodi:docname="valaiweb.svg"
   inkscape:version="0.92.4 (5da689c313, 2019-01-14)"
   inkscape:export-filename="C:\xampp\htdocs\netmoni\images\logo1.png"
   inkscape:export-xdpi="23.040001"
   inkscape:export-ydpi="23.040001">
  <metadata
     id="metadata16">
    <rdf:RDF>
      <cc:Work
         rdf:about="">
        <dc:format>image/svg+xml</dc:format>
        <dc:type
           rdf:resource="http://purl.org/dc/dcmitype/StillImage" />
      </cc:Work>
    </rdf:RDF>
  </metadata>
  <defs
     id="defs14" />
  <sodipodi:namedview
     pagecolor="#ffffff"
     bordercolor="#666666"
     borderopacity="1"
     objecttolerance="10"
     gridtolerance="10"
     guidetolerance="10"
     inkscape:pageopacity="0"
     inkscape:pageshadow="2"
     inkscape:window-width="1920"
     inkscape:window-height="1017"
     id="namedview12"
     showgrid="false"
     inkscape:zoom="1.84375"
     inkscape:cx="233.92621"
     inkscape:cy="208.90454"
     inkscape:window-x="-8"
     inkscape:window-y="-8"
     inkscape:window-maximized="1"
     inkscape:current-layer="svg10" />
  <linearGradient
     id="New_Gradient_Swatch_3"
     gradientUnits="userSpaceOnUse"
     x1="32"
     x2="32"
     y1="63.043"
     y2="1.754">
    <stop
       offset="0"
       stop-color="#006df0"
       id="stop2" />
    <stop
       offset="1"
       stop-color="#00e7f0"
       id="stop4" />
  </linearGradient>
  <g
     id="Spider_web"
     data-name="Spider web">
    <path
       d="m60.926 43.192-4.019-1.706-.334-1.108a28.912 28.912 0 0 1 0-16.756l.162-.537 4.382-1.771a1 1 0 1 0 -.749-1.854l-4.045 1.634-1.376-.764a28.982 28.982 0 0 1 -11.236-11.212l-.518-.928 1.84-4.335a1 1 0 1 0 -1.841-.781l-1.706 4.019-1.108.334a28.9 28.9 0 0 1 -16.756 0l-.537-.162-1.771-4.382a1 1 0 1 0 -1.854.749l1.634 4.044-.844 1.5a29.006 29.006 0 0 1 -11.072 11.074l-.99.556-4.333-1.839a1 1 0 1 0 -.781 1.841l4.019 1.706.334 1.108a28.912 28.912 0 0 1 0 16.756l-.162.537-4.382 1.771a1 1 0 0 0 .375 1.927 1.011 1.011 0 0 0 .374-.073l4.045-1.634 1.376.764a28.982 28.982 0 0 1 11.236 11.212l.518.928-1.84 4.335a1 1 0 1 0 1.841.781l1.706-4.019 1.108-.334a28.9 28.9 0 0 1 16.756 0l.537.162 1.771 4.382a1 1 0 1 0 1.854-.749l-1.634-4.044.8-1.443a28.986 28.986 0 0 1 11.241-11.211l.86-.478 4.338 1.841a1 1 0 0 0 .781-1.841zm-6.394-2.714-4.575-1.942a34.676 34.676 0 0 1 -.068-12.685l4.511-1.822a30.885 30.885 0 0 0 .132 16.449zm-17.784-17.1a42.817 42.817 0 0 0 4.022 4l-6.906 2.79zm-4.725 6.013-2.756-6.821a43.058 43.058 0 0 0 5.657-.013zm-1.855.749-6.8-2.887a42.8 42.8 0 0 0 4.008-4.028zm-.781 1.841-6.814 2.749a42.626 42.626 0 0 0 -.013-5.651zm.749 1.855-2.884 6.794a42.817 42.817 0 0 0 -4.022-4zm1.841.781 2.756 6.821c-.912-.058-1.826-.1-2.733-.1-.971 0-1.948.045-2.924.111zm1.855-.749 6.794 2.884a42.827 42.827 0 0 0 -4 4.023zm.781-1.841 6.814-2.753a42.625 42.625 0 0 0 .013 5.651zm8.248-5.49a40.657 40.657 0 0 1 -5.24-5.215l1.791-4.222a36.7 36.7 0 0 0 7.756 7.7zm-7.056-6.057a41.1 41.1 0 0 1 -7.375.019l-1.7-4.214a37.194 37.194 0 0 0 10.882-.054zm-9.275.654a40.807 40.807 0 0 1 -5.22 5.246l-4.22-1.791a36.725 36.725 0 0 0 7.7-7.763zm-6.047 7.066a40.68 40.68 0 0 1 .019 7.37l-4.218 1.7a36.6 36.6 0 0 0 -.054-10.879zm.656 9.27a40.657 40.657 0 0 1 5.24 5.215l-1.791 4.215a36.7 36.7 0 0 0 -7.756-7.7zm7.061 6.054a41.1 41.1 0 0 1 7.375-.019l1.7 4.214a36.348 36.348 0 0 0 -10.882.054zm9.272-.661a40.8 40.8 0 0 1 5.214-5.243l4.214 1.791a36.7 36.7 0 0 0 -7.692 7.76zm6.05-7.061a40.668 40.668 0 0 1 -.019-7.369l4.218-1.7a36.565 36.565 0 0 0 .053 10.879zm10.419-13.745-4.594 1.856a34.784 34.784 0 0 1 -9.033-8.942l1.9-4.47a30.964 30.964 0 0 0 11.727 11.556zm-13.463-12.589-1.941 4.573a35.173 35.173 0 0 1 -12.687.068l-1.821-4.509a30.885 30.885 0 0 0 16.449-.132zm-18.485.69.06-.108 1.856 4.594a34.831 34.831 0 0 1 -8.944 9.039l-4.468-1.9a30.985 30.985 0 0 0 11.496-11.625zm-12.525 13.364 4.575 1.942a34.676 34.676 0 0 1 .068 12.685l-4.511 1.822a30.885 30.885 0 0 0 -.132-16.449zm.591 18.421 4.594-1.856a34.784 34.784 0 0 1 9.033 8.942l-1.9 4.47a30.964 30.964 0 0 0 -11.727-11.556zm21.941 11.389a31 31 0 0 0 -8.478 1.2l1.941-4.573a35.2 35.2 0 0 1 12.687-.067l1.821 4.508a30.944 30.944 0 0 0 -7.971-1.068zm9.965.574-.021.038-1.856-4.594a34.812 34.812 0 0 1 8.937-9.037l4.471 1.9a30.967 30.967 0 0 0 -11.531 11.693z"
       fill="url(#New_Gradient_Swatch_3)"
       id="path7"
       style="fill:#000000;fill-opacity:1" />
  </g>
  <g
     aria-label="V"
     transform="matrix(0.125,0,0,0.125,19.736971,7.05856)"
     style="font-style:normal;font-weight:normal;font-size:96px;line-height:1.25;font-family:sans-serif;letter-spacing:0px;word-spacing:0px;fill:#ffffff;fill-opacity:1;stroke:#000000;stroke-opacity:1"
     id="flowRoot823">
    <path
       d="M 129.49023,124.09152 104.08398,193.8884 H 91.708984 l -25.40625,-69.79688 h 9.9375 l 21.890625,61.40625 21.890621,-61.40625 z"
       style="font-size:96px;fill:#ffffff;fill-opacity:1;stroke:#000000;stroke-opacity:1"
       id="path855"
       inkscape:connector-curvature="0" />
  </g>
  <g
     aria-label="A"
     transform="matrix(0.125,0,0,0.125,18.747388,15.539091)"
     style="font-style:normal;font-weight:normal;font-size:96px;line-height:1.25;font-family:sans-serif;letter-spacing:0px;word-spacing:0px;fill:#ffffff;fill-opacity:1;stroke:#000000;stroke-opacity:1"
     id="flowRoot823-3">
    <path
       d="M 143.80274,213.35145 H 131.71419 L 123.34961,189.5754 H 86.453777 l -8.364584,23.77605 H 66.573568 l 31.052084,-85.3073 h 15.124998 z m -23.94792,-33.51563 -14.95313,-41.88021 -15.010413,41.88021 z"
       style="font-size:117.33333588px;fill:#ffffff;fill-opacity:1;stroke:#000000;stroke-opacity:1"
       id="path858"
       inkscape:connector-curvature="0" />
  </g>
</svg>
