<?xml version="1.0" encoding="iso-8859-1"?>
<!-- Generator: Adobe Illustrator 19.0.0, SVG Export Plug-In . SVG Version: 6.00 Build 0)  -->
<svg version="1.1" id="Capa_1" xmlns="http://www.w3.org/2000/svg" xmlns:xlink="http://www.w3.org/1999/xlink" x="0px" y="0px"
	 viewBox="0 0 512 512" style="enable-background:new 0 0 512 512;" xml:space="preserve">
<path style="fill:#D0E6EF;" d="M364,26v112c0,8.837-7.163,16-16,16H164c-8.837,0-16-7.163-16-16V26c0-8.837,7.163-16,16-16h184
	C356.837,10,364,17.163,364,26z"/>
<path style="fill:#F25353;" d="M148,113.969V138c0,8.837,7.163,16,16,16h184c8.837,0,16-7.163,16-16v-24.031H148z"/>
<path style="fill:#D0E6EF;" d="M226,326v112c0,8.837-7.163,16-16,16H26c-8.837,0-16-7.163-16-16V326c0-8.837,7.163-16,16-16h184
	C218.837,310,226,317.163,226,326z"/>
<path style="fill:#FEB756;" d="M10,413.969V438c0,8.837,7.163,16,16,16h184c8.837,0,16-7.163,16-16v-24.031H10z"/>
<path style="fill:#D0E6EF;" d="M502,326v112c0,8.837-7.163,16-16,16H302c-8.837,0-16-7.163-16-16V326c0-8.837,7.163-16,16-16h184
	C494.837,310,502,317.163,502,326z"/>
<path style="fill:#A0E892;" d="M286,413.969V438c0,8.837,7.163,16,16,16h184c8.837,0,16-7.163,16-16v-24.031H286z"/>
<path d="M164,164h61.913l-2.623,28h-18.383c-5.523,0-10,4.477-10,10s4.477,10,10,10h102.185c5.523,0,10-4.477,10-10s-4.477-10-10-10
	h-18.383l-2.623-28H348c14.336,0,26-11.664,26-26V26c0-14.336-11.664-26-26-26H164c-14.336,0-26,11.664-26,26v112
	C138,152.336,149.664,164,164,164z M268.621,192h-25.243L246,164h19.998L268.621,192z M164,20h184c3.309,0,6,2.691,6,6v112
	c0,3.309-2.691,6-6,6H164c-3.309,0-6-2.691-6-6v-14.031h120.667c5.523,0,10-4.477,10-10s-4.477-10-10-10H158V26
	C158,22.691,160.691,20,164,20z"/>
<path d="M320.33,123.97c2.64,0,5.21-1.07,7.08-2.93c1.86-1.86,2.92-4.44,2.92-7.07s-1.06-5.21-2.92-7.07
	c-1.87-1.86-4.44-2.93-7.08-2.93c-2.63,0-5.21,1.07-7.07,2.93s-2.93,4.44-2.93,7.07s1.07,5.21,2.93,7.07
	C315.12,122.9,317.7,123.97,320.33,123.97z"/>
<path d="M210,300H26c-14.336,0-26,11.664-26,26v112c0,14.336,11.664,26,26,26h61.913l-2.623,28H66.907c-5.523,0-10,4.477-10,10
	s4.477,10,10,10h102.185c5.523,0,10-4.477,10-10s-4.477-10-10-10h-18.383l-2.623-28H210c14.336,0,26-11.664,26-26V326
	C236,311.664,224.336,300,210,300z M130.621,492h-25.243L108,464h19.998L130.621,492z M216,438c0,3.309-2.691,6-6,6H26
	c-3.309,0-6-2.691-6-6v-14.031h119.873c5.523,0,10-4.477,10-10s-4.477-10-10-10H20V326c0-3.309,2.691-6,6-6h184c3.309,0,6,2.691,6,6
	V438z"/>
<path d="M181.54,403.97c-2.63,0-5.21,1.07-7.07,2.93s-2.93,4.43-2.93,7.07c0,2.63,1.07,5.21,2.93,7.07
	c1.86,1.86,4.44,2.93,7.07,2.93s5.21-1.07,7.07-2.93s2.93-4.44,2.93-7.07c0-2.64-1.07-5.21-2.93-7.07S184.17,403.97,181.54,403.97z"
	/>
<path d="M486,300H302c-14.336,0-26,11.664-26,26v112c0,14.336,11.664,26,26,26h61.913l-2.623,28h-18.383c-5.523,0-10,4.477-10,10
	s4.477,10,10,10h102.185c5.523,0,10-4.477,10-10s-4.477-10-10-10h-18.383l-2.623-28H486c14.336,0,26-11.664,26-26V326
	C512,311.664,500.336,300,486,300z M406.621,492h-25.243L384,464h19.998L406.621,492z M492,438c0,3.309-2.691,6-6,6H302
	c-3.309,0-6-2.691-6-6v-14.031h120.54c5.523,0,10-4.477,10-10s-4.477-10-10-10H296V326c0-3.309,2.691-6,6-6h184c3.309,0,6,2.691,6,6
	V438z"/>
<path d="M458.21,403.97c-2.64,0-5.21,1.07-7.07,2.93c-1.87,1.86-2.93,4.44-2.93,7.07s1.06,5.21,2.93,7.07
	c1.86,1.86,4.43,2.93,7.07,2.93c2.63,0,5.2-1.07,7.07-2.93c1.86-1.86,2.93-4.44,2.93-7.07s-1.07-5.21-2.93-7.07
	C463.41,405.04,460.84,403.97,458.21,403.97z"/>
<path d="M384,274c0,5.523,4.477,10,10,10s10-4.477,10-10v-18c0-5.523-4.477-10-10-10H266v-9.014c0-5.523-4.477-10-10-10
	s-10,4.477-10,10V246H118c-5.523,0-10,4.477-10,10v18c0,5.523,4.477,10,10,10s10-4.477,10-10v-8h256V274z"/>
<g>
</g>
<g>
</g>
<g>
</g>
<g>
</g>
<g>
</g>
<g>
</g>
<g>
</g>
<g>
</g>
<g>
</g>
<g>
</g>
<g>
</g>
<g>
</g>
<g>
</g>
<g>
</g>
<g>
</g>
</svg>
